HIERARCHY
ROOT Hips
{
	OFFSET 0.000000 0.000000 0.000000 
	CHANNELS 6 Xposition Yposition Zposition Zrotation Yrotation Xrotation
	JOINT LeftUpLeg
	{
		OFFSET 1.363060 -1.794630 0.839290 
		CHANNELS 3 Zrotation Yrotation Xrotation
		JOINT LeftLeg
		{
			OFFSET 2.448110 -6.726130 0.000000 
			CHANNELS 3 Zrotation Yrotation Xrotation
			JOINT LeftFoot
			{
				OFFSET 2.562200 -7.039590 0.000000 
				CHANNELS 3 Zrotation Yrotation Xrotation
				JOINT LeftToeBase
				{
					OFFSET 0.157640 -0.433110 2.322550 
					CHANNELS 3 Zrotation Yrotation Xrotation
					End Site
					{
						OFFSET 0.000000 0.000000 0.000000 
					}
				}
			}
		}
	}
	JOINT RightUpLeg
	{
		OFFSET -1.305520 -1.794630 0.839290 
		CHANNELS 3 Zrotation Yrotation Xrotation
		JOINT RightLeg
		{
			OFFSET -2.542530 -6.985550 0.000000 
			CHANNELS 3 Zrotation Yrotation Xrotation
			JOINT RightFoot
			{
				OFFSET -2.568260 -7.056230 0.000000 
				CHANNELS 3 Zrotation Yrotation Xrotation
				JOINT RightToeBase
				{
					OFFSET -0.164730 -0.452590 2.363150 
					CHANNELS 3 Zrotation Yrotation Xrotation
					End Site
					{
						OFFSET 0.000000 0.000000 0.000000 
					}
				}
			}
		}
	}
	JOINT Spine
	{
		OFFSET 0.028270 2.035590 -0.193380 
		CHANNELS 3 Zrotation Yrotation Xrotation
		JOINT Spine1
		{
			OFFSET 0.056720 2.048850 -0.042750 
			CHANNELS 3 Zrotation Yrotation Xrotation
			JOINT Neck1
			{
				OFFSET -0.054170 1.746240 0.172020 
				CHANNELS 3 Zrotation Yrotation Xrotation
				JOINT Head
				{
					OFFSET 0.104070 1.761360 -0.123970 
					CHANNELS 3 Zrotation Yrotation Xrotation
					End Site
					{
						OFFSET 0.000000 0.000000 0.000000 
					}
				}
			}
			JOINT LeftArm
			{
				OFFSET 3.362410 1.200890 -0.311210 
				CHANNELS 3 Zrotation Yrotation Xrotation
				JOINT LeftForeArm
				{
					OFFSET 4.983000 -0.000000 -0.000000 
					CHANNELS 3 Zrotation Yrotation Xrotation
					JOINT LeftHand
					{
						OFFSET 3.483560 -0.000000 -0.000000 
						CHANNELS 3 Zrotation Yrotation Xrotation
						JOINT LeftHandIndex1
						{
							OFFSET 0.715260 -0.000000 -0.000000 
							CHANNELS 3 Zrotation Yrotation Xrotation
							End Site
							{
								OFFSET 0.000000 0.000000 0.000000 
							}
						}
					}
				}
			}
			JOINT RightArm
			{
				OFFSET -3.136600 1.374050 -0.404650 
				CHANNELS 3 Zrotation Yrotation Xrotation
				JOINT RightForeArm
				{
					OFFSET -5.241900 -0.000000 -0.000000 
					CHANNELS 3 Zrotation Yrotation Xrotation
					JOINT RightHand
					{
						OFFSET -3.444170 -0.000000 -0.000000 
						CHANNELS 3 Zrotation Yrotation Xrotation
						JOINT RightHandIndex1
						{
							OFFSET -0.622530 -0.000000 -0.000000 
							CHANNELS 3 Zrotation Yrotation Xrotation
							End Site
							{
								OFFSET 0.000000 0.000000 0.000000 
							}
						}
					}
				}
			}
		}
	}
}
MOTION
Frames: 13
Frame Time: 0.041667
-4.421044 15.958312 1.238432 0.089819 19.015954 10.424364 -17.101275 -8.083570 23.961001 -2.191744 -1.831076 1.944121 -0.541033 10.715435 -18.035405 1.578800 -7.927200 -22.493300 17.071234 10.082387 -43.329850 -3.782468 -19.229961 46.988861 0.708011 -7.248111 -6.365657 -0.000800 -0.178100 0.489400 0.651772 -1.674397 -5.365833 -2.422993 -1.214836 -1.961522 7.055436 -6.108217 19.100956 -1.064600 -0.177800 18.304100 -75.206255 31.843221 54.825670 115.923204 -49.243897 -78.652815 -1.172209 1.420904 -39.767930 -7.125000 0.000000 0.000000 -17.576141 35.840681 -8.898756 -93.398911 56.354405 -54.803569 -1.584536 0.082948 7.203787 7.125000 0.000000 0.000000 
-4.481959 15.955266 1.334809 0.081912 19.368036 10.657024 -16.758024 -8.289755 23.828980 -2.184513 -1.835126 1.951212 -0.661380 11.134568 -17.753259 1.569800 -7.905900 -22.428500 17.350228 9.904934 -43.604030 -3.970411 -19.407929 47.654114 0.678242 -7.101344 -6.892378 -0.000200 -0.085200 0.234200 0.654734 -1.747834 -5.376332 -2.353108 -1.253635 -2.000870 7.127882 -6.220494 19.037771 -1.010200 -0.224900 18.252400 -75.327823 33.089815 54.559466 115.597545 -49.269631 -78.324468 -1.182318 1.444590 -40.190820 -7.125000 0.000000 0.000000 -17.902473 35.229395 -10.860402 -89.197593 57.085017 -50.945288 -1.765821 0.155868 9.805512 7.125000 0.000000 0.000000 
-4.539829 15.950371 1.427052 0.091847 19.656321 10.878256 -16.451464 -8.428119 23.708462 -2.177420 -1.837655 1.958836 -0.764043 11.473262 -17.484990 1.556700 -7.874400 -22.333100 17.609072 9.726232 -43.888941 -4.156793 -19.580826 48.306253 0.643240 -6.930210 -7.372587 0.000000 0.010000 -0.027600 0.653929 -1.793181 -5.385852 -2.285456 -1.276644 -2.056944 7.191816 -6.327806 18.979733 -0.963400 -0.269000 18.211600 -75.462630 34.292289 54.365335 115.307684 -49.284381 -78.032011 -1.184248 1.475574 -40.594844 -7.125000 0.000000 0.000000 -18.183769 34.765931 -12.963488 -84.480806 57.738666 -46.841558 -1.918398 0.230931 12.292488 7.125000 0.000000 0.000000 
-4.594653 15.943954 1.515053 0.106411 19.881123 11.079251 -16.167967 -8.497676 23.604153 -2.170006 -1.839344 1.967828 -0.848317 11.732762 -17.235383 1.545300 -7.846600 -22.249200 17.861891 9.554181 -44.176292 -4.341542 -19.749386 48.947491 0.603052 -6.734801 -7.819633 -0.000200 0.089000 -0.244600 0.650058 -1.811362 -5.395081 -2.225525 -1.285654 -2.129217 7.244351 -6.431444 18.918118 -0.926200 -0.313300 18.161800 -75.618677 35.460408 54.242982 115.067030 -49.284859 -77.791005 -1.179446 1.510270 -41.018290 -7.125000 0.000000 0.000000 -18.451512 34.460658 -15.155790 -79.410814 58.169432 -42.661776 -2.024125 0.299826 14.522333 7.125000 0.000000 0.000000 
-4.646649 15.936013 1.599356 0.126735 20.056733 11.254045 -15.908298 -8.512948 23.524937 -2.162505 -1.840835 1.977978 -0.914806 11.918777 -17.007520 1.538000 -7.829000 -22.195800 18.109745 9.380478 -44.451471 -4.525779 -19.911682 49.579069 0.558416 -6.520039 -8.247802 -0.000500 0.144700 -0.397600 0.643149 -1.811299 -5.403225 -2.173191 -1.287119 -2.202268 7.293712 -6.538180 18.864149 -0.884000 -0.361300 18.118100 -75.798665 36.587832 54.192395 114.868046 -49.273547 -77.593378 -1.171179 1.548517 -41.499603 -7.125000 0.000000 0.000000 -18.726158 34.311680 -17.394554 -74.136503 58.245842 -38.509856 -2.088341 0.361446 16.612525 7.125000 0.000000 0.000000 
-4.695707 15.927202 1.679960 0.160461 20.200492 11.402047 -15.678997 -8.492933 23.474807 -2.155439 -1.842361 1.988576 -0.967257 12.045302 -16.792288 1.537200 -7.827000 -22.189800 18.345218 9.194769 -44.699202 -4.708230 -20.063252 50.194094 0.509282 -6.285013 -8.663858 -0.000700 0.169300 -0.465200 0.634577 -1.803913 -5.409905 -2.126859 -1.286954 -2.269708 7.339505 -6.647587 18.812136 -0.839800 -0.412600 18.067500 -76.014137 37.676032 54.199669 114.722416 -49.248925 -77.451663 -1.159542 1.588077 -42.079631 -7.125000 0.000000 0.000000 -19.014526 34.316734 -19.652979 -69.055272 57.915130 -34.622353 -2.111362 0.407971 18.511153 7.125000 0.000000 0.000000 
-4.742046 15.917738 1.756757 0.197028 20.318259 11.522088 -15.466422 -8.443212 23.449678 -2.148466 -1.844125 2.000012 -1.009468 12.125627 -16.581653 1.541000 -7.836200 -22.217700 18.575249 9.009128 -44.913796 -4.885412 -20.203368 50.784110 0.456732 -6.038914 -9.072782 -0.000700 0.166600 -0.457800 0.624090 -1.789112 -5.415232 -2.093451 -1.285870 -2.333527 7.382457 -6.765444 18.761260 -0.793500 -0.469000 18.013000 -76.267325 38.715816 54.254777 114.637739 -49.209185 -77.375644 -1.146238 1.630706 -42.809262 -7.125000 0.000000 0.000000 -19.284695 34.438089 -21.915642 -64.379924 57.229496 -31.111456 -2.113991 0.455018 20.413175 7.125000 0.000000 0.000000 
-4.786319 15.908166 1.829420 0.231146 20.421857 11.626089 -15.260743 -8.378536 23.433316 -2.141559 -1.845753 2.011800 -1.046347 12.175751 -16.360672 1.547200 -7.851300 -22.263200 18.799984 8.830972 -45.101331 -5.053065 -20.331233 51.337735 0.403393 -5.795572 -9.471384 -0.000500 0.149600 -0.411000 0.610836 -1.765257 -5.419026 -2.075694 -1.282731 -2.390087 7.435093 -6.898661 18.711090 -0.731700 -0.533900 17.964600 -76.553836 39.682641 54.346936 114.617373 -49.155191 -77.370064 -1.130534 1.677352 -43.715436 -7.125000 0.000000 0.000000 -19.515073 34.614720 -24.186547 -60.377696 56.331171 -28.131781 -2.098174 0.505677 22.233352 7.125000 0.000000 0.000000 
-4.828198 15.898593 1.898385 0.268868 20.507163 11.714235 -15.069244 -8.293564 23.430479 -2.134809 -1.847107 2.024044 -1.081438 12.209504 -16.121057 1.554700 -7.869400 -22.318000 19.011700 8.665190 -45.257583 -5.209965 -20.446325 51.850920 0.348819 -5.553847 -9.861219 -0.000300 0.117300 -0.322200 0.594674 -1.728787 -5.419735 -2.076530 -1.274295 -2.430178 7.491994 -7.045645 18.660136 -0.667900 -0.601900 17.927900 -76.872318 40.561477 54.470855 114.675530 -49.086645 -77.449360 -1.112414 1.734049 -44.811883 -7.125000 0.000000 0.000000 -19.689503 34.785852 -26.418955 -57.192848 55.393279 -25.765999 -2.065658 0.558577 23.821919 7.125000 0.000000 0.000000 
-4.868228 15.889238 1.963216 0.292542 20.568057 11.794123 -14.871961 -8.182963 23.422484 -2.127483 -1.847776 2.037236 -1.116659 12.233823 -15.858413 1.558600 -7.878900 -22.347000 19.221783 8.535783 -45.398331 -5.352859 -20.552528 52.319829 0.295457 -5.326853 -10.239927 -0.000100 0.070400 -0.193300 0.572938 -1.663708 -5.417825 -2.109812 -1.252769 -2.459258 7.558801 -7.216461 18.599965 -0.596900 -0.678600 17.900200 -77.203965 41.335373 54.618407 114.827922 -48.998702 -77.635102 -1.097940 1.800378 -46.078525 -7.125000 0.000000 0.000000 -19.792369 34.855759 -28.509446 -54.840021 54.557734 -24.017839 -2.022578 0.611077 25.043303 7.125000 0.000000 0.000000 
-4.905865 15.880210 2.024349 0.319424 20.604570 11.866886 -14.688656 -8.046360 23.419562 -2.120131 -1.847747 2.050831 -1.152082 12.253862 -15.579919 1.557000 -7.874900 -22.334800 19.413606 8.430898 -45.522557 -5.484826 -20.650299 52.751322 0.243324 -5.110769 -10.599089 0.000000 0.016600 -0.045500 0.546310 -1.575914 -5.411953 -2.166098 -1.219332 -2.467570 7.643208 -7.405842 18.538289 -0.512600 -0.759700 17.890800 -77.560823 42.003114 54.766597 115.066659 -48.896188 -77.916372 -1.089483 1.878007 -47.446269 -7.125000 0.000000 0.000000 -19.840036 34.789456 -30.344747 -53.228691 53.905989 -22.822305 -1.981092 0.658124 25.816764 7.125000 0.000000 0.000000 
-4.941327 15.871508 2.082110 0.347891 20.616019 11.939313 -14.516331 -7.884816 23.411468 -2.112656 -1.846724 2.064585 -1.187846 12.272670 -15.289194 1.550300 -7.858700 -22.285800 19.584099 8.358348 -45.641645 -5.607324 -20.742910 53.151799 0.193477 -4.908263 -10.931387 0.000000 -0.040300 0.110800 0.515632 -1.465428 -5.403378 -2.242377 -1.173058 -2.467004 7.739191 -7.608939 18.459117 -0.424400 -0.846200 17.868500 -77.943855 42.581809 54.905902 115.375856 -48.783041 -78.273762 -1.084669 1.952821 -48.802922 -7.125000 0.000000 0.000000 -19.840983 34.569046 -31.802105 -52.256469 53.473381 -22.103662 -1.951370 0.686919 26.057508 7.125000 0.000000 0.000000 
-4.974178 15.863241 2.136825 0.381993 20.605929 12.015221 -14.358662 -7.702302 23.396531 -2.105257 -1.844595 2.078138 -1.223757 12.290174 -14.985432 1.536500 -7.825400 -22.184900 19.728950 8.309413 -45.761687 -5.723830 -20.832592 53.531241 0.146874 -4.719973 -11.229979 -0.000200 -0.080200 0.220200 0.482150 -1.338128 -5.391826 -2.327166 -1.116378 -2.453242 7.846153 -7.820875 18.365808 -0.326900 -0.940300 17.833400 -78.363998 43.073548 55.027252 115.715278 -48.671036 -78.659485 -1.086014 2.022047 -50.032599 -7.125000 0.000000 0.000000 -19.820022 34.202763 -32.826526 -51.780233 53.244215 -21.761846 -1.942879 0.694586 25.806232 7.125000 0.000000 0.000000 
